#N canvas 827 239 704 313 12;
#X obj 1311 1050 mtof;
#X floatatom 1311 1079 10 0 0 0 - - - 16;
#X floatatom 1160 736 5 0 0 0 - - - 12;
#X floatatom 1215 877 5 0 0 0 - - - 12;
#X floatatom 1164 877 5 0 0 0 - - - 12;
#X floatatom 1267 877 5 0 0 0 - - - 12;
#X floatatom 1311 877 5 0 0 0 - - - 12;
#X floatatom 1355 877 5 0 0 0 - - - 12;
#X floatatom 1399 877 5 0 0 0 - - - 12;
#X floatatom 1443 877 5 0 0 0 - - - 12;
#X obj 1261 156 hradio 34 1 0 12 empty empty empty 0 -8 0 10 #191919 #e1e1e1 #e1e1e1 0;
#X text 1337 127 D;
#X text 1301 127 C#;
#X text 1268 127 C;
#X text 1364 127 D#;
#X text 1408 127 E;
#X text 1445 128 F;
#X text 1474 127 F#;
#X text 1511 127 G;
#X text 1545 126 G#;
#X text 1581 125 A;
#X text 1618 126 A#;
#X text 1657 126 B;
#X obj 1261 199 select 0 1 2 3 4 5 6 7 8 9 10 11;
#X msg 1258 242 48;
#X msg 1296 242 49;
#X msg 1334 242 50;
#X msg 1372 242 51;
#X msg 1407 242 52;
#X msg 1445 242 53;
#X msg 1483 242 54;
#X msg 1521 242 55;
#X msg 1559 242 56;
#X msg 1597 242 57;
#X msg 1634 242 58;
#X msg 1672 242 59;
#X floatatom 1311 1009 5 0 0 0 - - - 12;
#X obj 1261 330 +;
#X obj 1105 156 hradio 34 1 0 3 empty empty empty 0 -8 0 10 #191919 #e1e1e1 #e1e1e1 0;
#X text 1105 120 -1;
#X text 1146 123 0;
#X text 1185 124 +1;
#X obj 1105 199 select 0 1 2;
#X msg 1105 228 -12;
#X msg 1146 228 0;
#X msg 1176 228 12;
#X floatatom 1261 359 5 0 0 0 - - - 12;
#X obj 1214 199 bng 29 250 50 0 empty empty empty 17 7 0 10 #191919 #e1e1e1 #e1e1e1;
#X text 1426 76 ROOT SELECT;
#X obj 1261 386 s rootNote;
#X obj 1160 648 r rootNote;
#X obj 781 619 tgl 25 0 empty empty empty 17 7 0 10 #191919 #e1e1e1 #e1e1e1 0 1;
#X floatatom 781 717 5 0 0 0 - - - 12;
#X obj 746 814 bng 25 250 50 0 empty empty empty 17 7 0 10 #191919 #e1e1e1 #e1e1e1;
#X obj 778 814 bng 25 250 50 0 empty empty empty 17 7 0 10 #191919 #e1e1e1 #e1e1e1;
#X obj 810 814 bng 25 250 50 0 empty empty empty 17 7 0 10 #191919 #e1e1e1 #e1e1e1;
#X obj 842 814 bng 25 250 50 0 empty empty empty 17 7 0 10 #191919 #e1e1e1 #e1e1e1;
#X obj 874 814 bng 25 250 50 0 empty empty empty 17 7 0 10 #191919 #e1e1e1 #e1e1e1;
#X obj 906 814 bng 25 250 50 0 empty empty empty 17 7 0 10 #191919 #e1e1e1 #e1e1e1;
#X obj 938 814 bng 25 250 50 0 empty empty empty 17 7 0 10 #191919 #e1e1e1 #e1e1e1;
#X obj 970 814 bng 25 250 50 0 empty empty empty 17 7 0 10 #191919 #e1e1e1 #e1e1e1;
#X obj 781 762 select 0 1 2 3 4 5 6 7;
#X obj 781 688 random 8;
#X floatatom 1485 877 5 0 0 0 - - - 12;
#X obj 1215 828 +;
#X obj 1267 828 +;
#X obj 1311 828 +;
#X obj 1355 828 +;
#X obj 1399 828 +;
#X obj 1443 828 +;
#X obj 1485 828 +;
#X obj 1184 689 bng 25 250 50 0 empty empty empty 17 7 0 10 #191919 #e1e1e1 #e1e1e1;
#X obj 1246 687 unpack f f f f f f f;
#X msg 96 675 list 2 4 5 7 9 11 12;
#X floatatom 1246 736 5 0 0 0 - - - 12;
#X floatatom 1290 736 5 0 0 0 - - - 12;
#X floatatom 1334 736 5 0 0 0 - - - 12;
#X floatatom 1378 736 5 0 0 0 - - - 12;
#X floatatom 1422 736 5 0 0 0 - - - 12;
#X floatatom 1466 736 5 0 0 0 - - - 12;
#X floatatom 1512 736 4 0 0 0 - - - 12;
#X msg 227 675 list 2 3 5 7 8 10 12;
#X text 256 702 MINOR SCALE;
#X text 129 702 MAJOR SCALE;
#X obj 979 156 hradio 34 1 0 2 empty empty empty 0 -8 0 10 #191919 #e1e1e1 #e1e1e1 0;
#X text 988 42 SCALE;
#X text 968 127 MAJ;
#X text 1017 127 MIN;
#X obj 96 615 select 0 1;
#X obj 979 199 s scaleSelect;
#X obj 96 586 r scaleSelect;
#X obj 96 744 s scaleValues;
#X obj 1246 648 r scaleValues;
#X obj 781 659 metro 150;
#X obj 945 528 knob 50 1 8 0 0 empty empty #191919 #696969 #E1E1E1 1 0 8 1 1 270 0 0 1;
#X obj 868 528 knob 50 50 300 0 0 empty empty #191919 #696969 #E1E1E1 1 0 0 0 1 270 0 0 50;
#X floatatom 868 587 7 0 0 0 - - - 12;
#X floatatom 945 587 5 0 0 0 - - - 12;
#X obj 29 28 knob 50 50 300 0 0 empty empty #191919 #696969 #E1E1E1 1 0 0 0 1 270 0 0 50;
#X obj 29 87 s clock;
#X obj 868 473 r clock;
#X obj 234 77 knob 81 0 1.0001 0 0 empty empty #191919 #696969 #E1E1E1 1 0 2 1 1 270 0 0 1;
#X obj 234 177 s scale;
#X obj 979 97 r scale;
#X obj 29 239 hradio 40 1 0 12 empty empty empty 0 -8 0 10 #191919 #e1e1e1 #e1e1e1 0;
#X text 120 210 D;
#X text 75 209 C#;
#X text 40 210 C;
#X text 157 209 D#;
#X text 202 209 E;
#X text 242 209 F;
#X text 280 210 F#;
#X text 324 210 G;
#X text 361 210 G#;
#X text 407 210 A;
#X text 442 210 A#;
#X text 488 209 B;
#X obj 544 239 hradio 120 1 0 3 empty empty empty 0 -8 0 10 #191919 #e1e1e1 #e1e1e1 0;
#X text 553 210 -1;
#X text 595 210 0;
#X text 633 210 +1;
#X obj 29 288 s root;
#X obj 544 288 s oct;
#X obj 1105 81 r oct;
#X obj 1261 88 r root;
#X obj 1197 1113 outlet midi out;
#X obj 1311 1110 outlet freq out;
#X text 182 527 SCALES;
#X obj 564 77 knob 81 1 8 0 0 empty empty #191919 #696969 #E1E1E1 1 0 8 1 1 270 0 0 1;
#X obj 564 177 s noteAmt;
#X obj 949 476 r noteAmt;
#X text 640 761 RANDOMIZER;
#X connect 0 0 1 0;
#X connect 1 0 126 0;
#X connect 2 0 4 0;
#X connect 2 0 64 0;
#X connect 2 0 65 0;
#X connect 2 0 66 0;
#X connect 2 0 67 0;
#X connect 2 0 68 0;
#X connect 2 0 69 0;
#X connect 2 0 70 0;
#X connect 3 0 36 0;
#X connect 4 0 36 0;
#X connect 5 0 36 0;
#X connect 6 0 36 0;
#X connect 7 0 36 0;
#X connect 8 0 36 0;
#X connect 9 0 36 0;
#X connect 10 0 23 0;
#X connect 23 0 24 0;
#X connect 23 1 25 0;
#X connect 23 2 26 0;
#X connect 23 3 27 0;
#X connect 23 4 28 0;
#X connect 23 5 29 0;
#X connect 23 6 30 0;
#X connect 23 7 31 0;
#X connect 23 8 32 0;
#X connect 23 9 33 0;
#X connect 23 10 34 0;
#X connect 23 11 35 0;
#X connect 24 0 37 0;
#X connect 25 0 37 0;
#X connect 26 0 37 0;
#X connect 27 0 37 0;
#X connect 28 0 37 0;
#X connect 30 0 37 0;
#X connect 31 0 37 0;
#X connect 32 0 37 0;
#X connect 33 0 37 0;
#X connect 34 0 37 0;
#X connect 35 0 37 0;
#X connect 36 0 0 0;
#X connect 36 0 125 0;
#X connect 37 0 46 0;
#X connect 38 0 42 0;
#X connect 38 0 47 0;
#X connect 42 0 43 0;
#X connect 42 1 44 0;
#X connect 42 2 45 0;
#X connect 43 0 37 1;
#X connect 44 0 37 1;
#X connect 45 0 37 1;
#X connect 46 0 49 0;
#X connect 47 0 10 0;
#X connect 50 0 2 0;
#X connect 51 0 93 0;
#X connect 52 0 61 0;
#X connect 53 0 4 0;
#X connect 54 0 3 0;
#X connect 55 0 5 0;
#X connect 56 0 6 0;
#X connect 57 0 7 0;
#X connect 58 0 8 0;
#X connect 59 0 9 0;
#X connect 60 0 63 0;
#X connect 61 0 53 0;
#X connect 61 1 54 0;
#X connect 61 2 55 0;
#X connect 61 3 56 0;
#X connect 61 4 57 0;
#X connect 61 5 58 0;
#X connect 61 6 59 0;
#X connect 61 7 60 0;
#X connect 62 0 52 0;
#X connect 63 0 36 0;
#X connect 64 0 3 0;
#X connect 65 0 5 0;
#X connect 66 0 6 0;
#X connect 67 0 7 0;
#X connect 68 0 8 0;
#X connect 69 0 9 0;
#X connect 70 0 63 0;
#X connect 71 0 2 0;
#X connect 72 0 74 0;
#X connect 72 1 75 0;
#X connect 72 2 76 0;
#X connect 72 3 77 0;
#X connect 72 4 78 0;
#X connect 72 5 79 0;
#X connect 72 6 80 0;
#X connect 73 0 91 0;
#X connect 74 0 64 1;
#X connect 75 0 65 1;
#X connect 76 0 66 1;
#X connect 77 0 67 1;
#X connect 78 0 68 1;
#X connect 79 0 69 1;
#X connect 80 0 70 1;
#X connect 81 0 91 0;
#X connect 84 0 89 0;
#X connect 88 0 73 0;
#X connect 88 1 81 0;
#X connect 90 0 88 0;
#X connect 92 0 72 0;
#X connect 92 0 71 0;
#X connect 93 0 62 0;
#X connect 94 0 97 0;
#X connect 95 0 96 0;
#X connect 96 0 93 1;
#X connect 97 0 62 1;
#X connect 98 0 99 0;
#X connect 100 0 95 0;
#X connect 101 0 102 0;
#X connect 103 0 84 0;
#X connect 104 0 121 0;
#X connect 117 0 122 0;
#X connect 123 0 38 0;
#X connect 124 0 10 0;
#X connect 128 0 129 0;
#X connect 130 0 94 0;
