#N canvas 827 239 527 327 12;
#X obj 216 540 tgl 25 0 empty empty empty 17 7 0 10 #191919 #e1e1e1 #e1e1e1 0 1;
#X obj 216 612 bng 25 250 50 0 empty empty empty 17 7 0 10 #191919 #e1e1e1 #e1e1e1;
#X obj 216 646 i;
#X floatatom 216 704 5 0 0 0 - - - 12;
#X obj 216 731 % 5;
#X obj 216 760 sel 0 1 2 3 4;
#X obj 216 821 bng 25 250 50 0 empty empty empty 17 7 0 10 #191919 #e1e1e1 #e1e1e1;
#X obj 265 821 bng 25 250 50 0 empty empty empty 17 7 0 10 #191919 #e1e1e1 #e1e1e1;
#X obj 315 821 bng 25 250 50 0 empty empty empty 17 7 0 10 #191919 #e1e1e1 #e1e1e1;
#X obj 364 821 bng 25 250 50 0 empty empty empty 17 7 0 10 #191919 #e1e1e1 #e1e1e1;
#X obj 418 821 bng 25 250 50 0 empty empty empty 17 7 0 10 #191919 #e1e1e1 #e1e1e1;
#X obj 216 675 + 1;
#X msg 213 856 48;
#X msg 264 856 51;
#X msg 312 856 48;
#X msg 361 856 58;
#X msg 415 856 49;
#X obj 216 930 mtof;
#X obj 216 1197 osc~ 130;
#X obj 216 1226 *~ 0.4;
#X obj 216 1320 dac~;
#X obj 216 1114 +~;
#X obj 506 821 bng 25 250 50 0 empty empty empty 17 7 0 10 #191919 #e1e1e1 #e1e1e1;
#X obj 555 821 bng 25 250 50 0 empty empty empty 17 7 0 10 #191919 #e1e1e1 #e1e1e1;
#X obj 605 821 bng 25 250 50 0 empty empty empty 17 7 0 10 #191919 #e1e1e1 #e1e1e1;
#X obj 654 821 bng 25 250 50 0 empty empty empty 17 7 0 10 #191919 #e1e1e1 #e1e1e1;
#X obj 708 821 bng 25 250 50 0 empty empty empty 17 7 0 10 #191919 #e1e1e1 #e1e1e1;
#X obj 506 760 sel 0 1 2 3 4 5;
#X obj 506 731 % 6;
#X obj 766 821 bng 25 250 50 0 empty empty empty 17 7 0 10 #191919 #e1e1e1 #e1e1e1;
#X msg 507 856 2;
#X msg 554 856 3;
#X obj 840 821 bng 25 250 50 0 empty empty empty 17 7 0 10 #191919 #e1e1e1 #e1e1e1;
#X obj 889 821 bng 25 250 50 0 empty empty empty 17 7 0 10 #191919 #e1e1e1 #e1e1e1;
#X obj 939 821 bng 25 250 50 0 empty empty empty 17 7 0 10 #191919 #e1e1e1 #e1e1e1;
#X obj 988 821 bng 25 250 50 0 empty empty empty 17 7 0 10 #191919 #e1e1e1 #e1e1e1;
#X obj 1042 821 bng 25 250 50 0 empty empty empty 17 7 0 10 #191919 #e1e1e1 #e1e1e1;
#X obj 840 760 sel 0 1 2 3 4 5;
#X obj 1100 821 bng 25 250 50 0 empty empty empty 17 7 0 10 #191919 #e1e1e1 #e1e1e1;
#X msg 841 856 2;
#X msg 888 856 3;
#X msg 985 856 4.1;
#X msg 1039 856 2;
#X msg 1097 856 3.65;
#X obj 840 731 random 6;
#X obj 456 1013 *~;
#X obj 456 1042 osc~;
#X obj 508 1073 *~;
#X obj 448 1115 *~;
#X text 138 826 carrier \; freq;
#X text 560 724 mod freq multiplier;
#X text 138 539 clock;
#X text 364 1041 modulator;
#X text 302 1196 carrier;
#X text 951 730 deviation;
#X obj 622 1158 catch~ delay;
#X obj 622 1187 delwrite~ delBuff 150;
#X obj 622 1216 delread~ delBuff 150;
#X obj 622 1245 *~ 0.5;
#X obj 622 1274 throw~ out;
#X obj 283 1254 throw~ delay;
#X obj 282 1284 catch~ out;
#X obj 724 1276 throw~ delay;
#X text 822 1208 delay;
#X obj 779 1114 hsl 128 41 0 0.5 0 0 empty empty empty -2 -8 0 10 #191919 #e1e1e1 #e1e1e1 0 1;
#X msg 651 856 5;
#X msg 705 856 3;
#X msg 763 856 9;
#X msg 602 856 10;
#X msg 936 856 6;
#X obj 216 583 metro 140;
#X connect 0 0 70 0;
#X connect 1 0 2 0;
#X connect 1 0 44 0;
#X connect 2 0 11 0;
#X connect 3 0 4 0;
#X connect 3 0 28 0;
#X connect 4 0 5 0;
#X connect 5 0 6 0;
#X connect 5 1 7 0;
#X connect 5 2 8 0;
#X connect 5 3 9 0;
#X connect 5 4 10 0;
#X connect 6 0 12 0;
#X connect 7 0 13 0;
#X connect 8 0 14 0;
#X connect 9 0 15 0;
#X connect 10 0 16 0;
#X connect 11 0 3 0;
#X connect 11 0 2 1;
#X connect 12 0 17 0;
#X connect 13 0 17 0;
#X connect 14 0 17 0;
#X connect 15 0 17 0;
#X connect 16 0 17 0;
#X connect 17 0 47 0;
#X connect 17 0 45 0;
#X connect 17 0 21 0;
#X connect 18 0 19 0;
#X connect 19 0 20 0;
#X connect 19 0 20 1;
#X connect 19 0 60 0;
#X connect 21 0 18 0;
#X connect 22 0 30 0;
#X connect 23 0 31 0;
#X connect 24 0 68 0;
#X connect 25 0 65 0;
#X connect 26 0 66 0;
#X connect 27 0 22 0;
#X connect 27 1 23 0;
#X connect 27 2 24 0;
#X connect 27 3 25 0;
#X connect 27 4 26 0;
#X connect 27 5 29 0;
#X connect 28 0 27 0;
#X connect 29 0 67 0;
#X connect 30 0 45 1;
#X connect 31 0 45 1;
#X connect 32 0 39 0;
#X connect 33 0 40 0;
#X connect 34 0 69 0;
#X connect 35 0 41 0;
#X connect 36 0 42 0;
#X connect 37 0 32 0;
#X connect 37 1 33 0;
#X connect 37 2 34 0;
#X connect 37 3 35 0;
#X connect 37 4 36 0;
#X connect 37 5 38 0;
#X connect 38 0 43 0;
#X connect 39 0 47 1;
#X connect 40 0 47 1;
#X connect 41 0 47 1;
#X connect 42 0 47 1;
#X connect 43 0 47 1;
#X connect 44 0 37 0;
#X connect 45 0 46 0;
#X connect 46 0 48 0;
#X connect 47 0 48 1;
#X connect 48 0 21 1;
#X connect 55 0 56 0;
#X connect 57 0 58 0;
#X connect 58 0 59 0;
#X connect 58 0 62 0;
#X connect 61 0 20 0;
#X connect 61 0 20 1;
#X connect 64 0 58 1;
#X connect 65 0 45 1;
#X connect 66 0 45 1;
#X connect 67 0 45 1;
#X connect 68 0 45 1;
#X connect 69 0 47 1;
#X connect 70 0 1 0;
