#N canvas 827 239 527 327 12;
#N canvas 733 172 450 300 tick 0;
#X obj 136 102 inlet;
#X obj 134 131 t b;
#X obj 136 180 1;
#X obj 219 142 del 3;
#X obj 219 171 0;
#X obj 136 236 biquad~ 0 0 1 -1 0;
#X obj 167 291 *~;
#X obj 167 559 outlet~;
#X obj 391 147 loadbang;
#X msg 391 176 -0.25;
#X obj 391 305 line~;
#X obj 474 211 inlet;
#X msg 474 240 -0.25 \, 0.25 \$1;
#X obj 513 295 inlet;
#X floatatom 513 324 5 0 0 0 - - - 12;
#X obj 513 351 mtof;
#X obj 513 380 osc~ 440;
#X obj 391 334 cos~;
#X obj 391 363 *~ 0.1;
#X obj 391 432 *~;
#X obj 513 429 *~;
#X obj 484 466 *~;
#X obj 565 453 *~;
#X obj 338 486 hip~ 5;
#X connect 0 0 1 0;
#X connect 1 0 2 0;
#X connect 1 0 3 0;
#X connect 2 0 5 0;
#X connect 2 0 6 1;
#X connect 3 0 4 0;
#X connect 4 0 5 0;
#X connect 4 0 6 1;
#X connect 5 0 6 0;
#X connect 6 0 7 0;
#X connect 8 0 9 0;
#X connect 9 0 10 0;
#X connect 10 0 17 0;
#X connect 11 0 12 0;
#X connect 12 0 10 0;
#X connect 13 0 14 0;
#X connect 14 0 15 0;
#X connect 16 0 19 1;
#X connect 16 0 20 0;
#X connect 16 0 20 1;
#X connect 16 0 22 0;
#X connect 17 0 18 0;
#X connect 18 0 19 0;
#X connect 19 0 23 0;
#X connect 20 0 21 0;
#X connect 20 0 21 1;
#X connect 20 0 22 1;
#X connect 21 0 19 1;
#X connect 22 0 19 1;
#X connect 23 0 7 0;
#X restore 367 341 pd tick;
#X obj 387 664 dac~;
#X obj 364 156 tgl 25 0 empty empty empty 17 7 0 10 #191919 #e1e1e1 #e1e1e1 0 1;
#X obj 364 190 metro;
#X floatatom 426 163 5 0 0 0 - - - 12;
#X obj 367 430 vcf~;
#X obj 535 251 random 4000;
#X obj 535 280 + 5000;
#X floatatom 535 339 8 0 0 0 - - - 12;
#X obj 607 281 loadbang;
#X msg 607 310 5;
#X floatatom 607 339 5 0 0 0 - - - 12;
#N canvas 733 172 450 300 panner 1;
#X obj 102 41 inlet~ signal;
#X obj 253 70 / 4;
#X obj 253 41 inlet control;
#X floatatom 253 99 8 0 0 0 - - - 12;
#X obj 253 126 + 0.75;
#X msg 253 155 \$1 10;
#X obj 253 184 line~;
#X obj 253 213 cos~;
#X obj 193 267 *~;
#X msg 99 160 \$1 10;
#X obj 99 189 line~;
#X obj 99 218 cos~;
#X obj 39 267 *~;
#X obj 39 310 outlet~ left;
#X obj 193 310 outlet~ right;
#X connect 0 0 8 0;
#X connect 0 0 12 0;
#X connect 1 0 3 0;
#X connect 2 0 1 0;
#X connect 3 0 4 0;
#X connect 3 0 9 0;
#X connect 4 0 5 0;
#X connect 5 0 6 0;
#X connect 6 0 7 0;
#X connect 7 0 8 1;
#X connect 8 0 14 0;
#X connect 9 0 10 0;
#X connect 10 0 11 0;
#X connect 11 0 12 1;
#X connect 12 0 13 0;
#X restore 367 531 pd panner;
#X obj 212 254 random 10;
#X obj 152 323 t b;
#X obj 106 219 loadbang;
#X msg 106 248 1;
#X obj 152 414 /;
#X obj 367 370 hip~ 1000;
#X floatatom 152 463 5 0 0 0 - - - 12;
#X obj 367 459 *~ 2;
#X connect 0 0 18 0;
#X connect 2 0 3 0;
#X connect 3 0 0 0;
#X connect 3 0 6 0;
#X connect 3 0 13 0;
#X connect 4 0 3 1;
#X connect 5 0 20 0;
#X connect 6 0 7 0;
#X connect 7 0 8 0;
#X connect 8 0 5 1;
#X connect 9 0 10 0;
#X connect 10 0 11 0;
#X connect 11 0 5 2;
#X connect 12 1 1 1;
#X connect 13 0 14 0;
#X connect 14 0 17 0;
#X connect 15 0 16 0;
#X connect 16 0 17 0;
#X connect 17 0 19 0;
#X connect 17 0 12 1;
#X connect 18 0 5 0;
#X connect 20 0 12 0;
