#N canvas 827 239 527 327 12;
#X obj 203 169 ==;
#X obj 170 70 tgl 25 0 empty empty empty 17 7 0 10 #191919 #e1e1e1 #e1e1e1 0 1;
#X floatatom 170 110 5 0 0 0 - - - 0;
#X obj 203 222 tgl 25 0 empty empty empty 17 7 0 10 #191919 #e1e1e1 #e1e1e1 0 1;
#X floatatom 214 127 5 0 0 0 - - - 0;
#X obj 118 189 ==;
#X obj 118 242 tgl 25 0 empty empty empty 17 7 0 10 #191919 #e1e1e1 #e1e1e1 0 1;
#X floatatom 152 160 5 0 0 0 - - - 0;
#X obj 183 421 *~;
#X obj 341 421 *~;
#X obj 236 481 *~ 0.2;
#X obj 234 536 dac~;
#X obj 183 336 phasor~ 440;
#X obj 341 336 osc~ 440;
#X text 75 69 switch;
#X text 195 307 sound 1;
#X text 374 307 sound 2;
#X text 234 420 <- to select ->;
#X text 468 420 use \; "*~" for audio;
#X connect 0 0 3 0;
#X connect 1 0 2 0;
#X connect 2 0 0 0;
#X connect 2 0 5 0;
#X connect 3 0 9 1 32.................m....TI...vI....UB...3J....;
#X connect 4 0 0 1;
#X connect 5 0 6 0;
#X connect 6 0 8 1 32.................3A...vD....d....LA...nI....;
#X connect 7 0 5 1;
#X connect 8 0 10 0;
#X connect 9 0 10 0;
#X connect 10 0 11 0;
#X connect 10 0 11 1;
#X connect 12 0 8 0;
#X connect 13 0 9 0;
