#N canvas 827 239 527 327 12;
#X obj 382 900 dac~;
#X obj 382 255 knob 50 0 2000 0 0 empty empty #191919 #696969 #E1E1E1 1 0 0 0 1 270 0 0 0;
#X obj 469 255 knob 50 0 2000 0 0 empty empty #191919 #696969 #E1E1E1 1 0 0 0 1 270 0 0 0;
#X obj 562 255 knob 50 0 2000 0 0 empty empty #191919 #696969 #E1E1E1 1 0 0 0 1 270 0 0 0;
#X obj 656 255 knob 50 0 2000 0 0 empty empty #191919 #696969 #E1E1E1 1 0 0 0 1 270 0 0 0;
#X obj 750 255 knob 50 0 2000 0 0 empty empty #191919 #696969 #E1E1E1 1 0 0 0 1 270 0 0 0;
#X obj 493 637 +~;
#X obj 420 548 *~ 0.2;
#X obj 476 536 *~ 0.2;
#X obj 538 534 *~ 0.2;
#X obj 599 533 *~ 0.2;
#X obj 687 536 *~ 0.2;
#X obj 384 325 knob 50 0 0.5 0 0 empty empty #191919 #696969 #E1E1E1 1 0 0 0 1 270 0 0 0;
#X obj 462 325 knob 50 0 0.5 0 0 empty empty #191919 #696969 #E1E1E1 1 0 0 0 1 270 0 0 0;
#X obj 564 325 knob 50 0 0.5 0 0 empty empty #191919 #696969 #E1E1E1 1 0 0 0 1 270 0 0 0;
#X obj 658 325 knob 50 0 0.5 0 0 empty empty #191919 #696969 #E1E1E1 1 0 0 0 1 270 0 0 0;
#X obj 752 325 knob 50 0 0.5 0 0 empty empty #191919 #696969 #E1E1E1 1 0 0 0 1 270 0 0 0;
#X obj 362 417 osc~;
#X obj 656 417 osc~;
#X obj 462 417 osc~;
#X obj 579 417 osc~;
#X obj 757 417 osc~;
#X obj 382 789 clip~ -0.5 0.5;
#X obj 382 745 *~;
#X obj 382 857 +~ 0.4;
#X connect 1 0 17 0;
#X connect 2 0 19 0;
#X connect 3 0 20 0;
#X connect 4 0 18 0;
#X connect 5 0 21 0;
#X connect 6 0 23 0;
#X connect 7 0 6 0;
#X connect 8 0 6 1;
#X connect 9 0 6 0;
#X connect 10 0 6 1;
#X connect 11 0 6 0;
#X connect 12 0 7 1;
#X connect 13 0 8 1;
#X connect 14 0 9 1;
#X connect 15 0 10 1;
#X connect 16 0 11 1;
#X connect 17 0 7 0;
#X connect 18 0 10 0;
#X connect 19 0 8 0;
#X connect 20 0 9 0;
#X connect 21 0 11 0;
#X connect 22 0 24 0;
#X connect 23 0 22 0;
#X connect 24 0 0 0;
#X connect 24 0 0 1;
