#N canvas 827 239 350 200 12;
#X obj 42 361 hsl 128 17 0 127 0 0 empty empty empty -2 -8 0 10 #191919 #e1e1e1 #e1e1e1 0 1;
#X floatatom 39 393 13 0 0 0 - - - 16;
#X obj 39 424 mtof;
#X floatatom 39 453 13 0 0 0 - - - 16;
#X obj 39 484 line 3;
#X obj 39 780 osc~;
#X obj 39 903 *~ 0.5;
#X obj 38 1023 dac~;
#X text 182 360 pitch;
#X text 146 452 freq;
#X text 102 483 smooth with line;
#X text 96 779 oscillator;
#X text 96 902 attenuator;
#X obj 174 523 noise~;
#X obj 39 748 +~;
#X obj 167 717 *~;
#X obj 199 686 * 0.5;
#X obj 174 552 lop~ 100;
#X obj 65 824 s~ feedback;
#X obj 174 591 +~;
#X obj 262 523 r~ feedback;
#X obj 262 552 *~ -1;
#X obj 363 523 hsl 128 17 0 100 0 0 empty empty empty -2 -8 0 10 #191919 #e1e1e1 #e1e1e1 0 1;
#X obj 360 549 * 0.01;
#X floatatom 360 578 12 0 0 0 - - - 16;
#X obj 174 620 *~;
#X obj 63 513 s freq;
#X obj 199 650 r freq;
#X text 509 522 badness;
#X obj 244 361 notein;
#X obj 115 31 knob 111 0 100 0 0 empty empty #191919 #696969 #E1E1E1 1 0 0 0 1 270 0 0 0;
#X obj 115 151 s badness;
#X obj 382 455 r badness;
#X obj 82 942 s~ vol;
#X connect 0 0 1 0;
#X connect 1 0 2 0;
#X connect 2 0 3 0;
#X connect 3 0 4 0;
#X connect 4 0 14 0;
#X connect 4 0 26 0;
#X connect 5 0 6 0;
#X connect 5 0 18 0;
#X connect 6 0 7 0;
#X connect 6 0 7 1;
#X connect 6 0 33 0;
#X connect 13 0 17 0;
#X connect 14 0 5 0;
#X connect 15 0 14 1;
#X connect 16 0 15 1;
#X connect 17 0 19 0;
#X connect 19 0 25 0;
#X connect 20 0 21 0;
#X connect 21 0 19 1;
#X connect 22 0 23 0;
#X connect 23 0 24 0;
#X connect 24 0 25 1;
#X connect 25 0 15 0;
#X connect 27 0 16 0;
#X connect 29 0 1 0;
#X connect 30 0 31 0;
#X connect 32 0 22 0;
