#N canvas 827 239 641 521 12;
#X obj 1539 1946 dac~;
#X obj 1339 1466 *~;
#X obj 1185 1323 mtof;
#X obj 1185 1352 osc~;
#X obj 1357 1402 lop~ 40;
#X obj 1357 1357 min~;
#X obj 1302 1297 phasor~ 0.3;
#X obj 1448 1281 hv.pinknoise~;
#X obj 1733 1451 *~;
#X obj 1636 1335 mtof;
#X obj 1636 1364 osc~;
#X obj 1751 1387 lop~ 40;
#X obj 1751 1342 min~;
#X obj 1842 1266 hv.pinknoise~;
#X obj 1503 1491 min~;
#X obj 1503 1576 delwrite~ tbt 200;
#X obj 1734 1667 delread~ tbt 200;
#X obj 1751 1281 phasor~ 0.2;
#X obj 1730 1617 delread~ tbt 120;
#X obj 1830 1466 lop~ 40;
#X obj 1789 1722 *~;
#X obj 1789 1751 *~ 0.8;
#X obj 1712 267 random 80;
#X obj 1786 309 / 100;
#X obj 1712 191 tgl 25 0 empty empty empty 17 7 0 10 #191919 #e1e1e1 #e1e1e1 0 1;
#X obj 1892 235 metro 800;
#X obj 1892 272 random 80;
#X obj 1892 191 tgl 25 0 empty empty empty 17 7 0 10 #191919 #e1e1e1 #e1e1e1 0 1;
#X obj 1533 246 metro 800;
#X obj 1533 277 random 80;
#X obj 1533 202 tgl 25 0 empty empty empty 17 7 0 10 #191919 #e1e1e1 #e1e1e1 0 1;
#X obj 1533 312 * 10;
#X obj 1373 1174 phasor~;
#X obj 1454 1174 phasor~;
#X obj 1410 1237 +~;
#X obj 1278 1582 delwrite~ ddd 600;
#X obj 1278 1611 delread~ ddd 600;
#X obj 1321 1698 *~;
#X obj 1984 1653 * 20;
#X obj 1984 1727 vd~ ddd;
#X obj 1984 1756 *~ 0.8;
#X obj 1892 301 / 300;
#X obj 1374 191 tgl 25 0 empty empty empty 17 7 0 10 #191919 #e1e1e1 #e1e1e1 0 1;
#X obj 1056 1380 mtof;
#X obj 1056 1409 osc~;
#X obj 1801 1161 hv.pinknoise~;
#X obj 1801 1190 lop~ 50;
#X obj 1886 1627 hv.pinknoise~;
#X obj 1886 1656 lop~ 150;
#X obj 1531 1663 bp~ 50 2;
#X obj 1672 309 * 100;
#X obj 1671 1451 *~;
#X obj 1730 1564 line~;
#X obj 1984 1687 line~;
#X obj 1374 251 metro 3000;
#X obj 1374 288 random 6000;
#X obj 1374 158 r notes;
#X obj 1534 158 r tones;
#X obj 1712 158 r mod1;
#X obj 1892 158 r mod2;
#X floatatom 735 834 5 0 0 0 - - - 12;
#X msg 1582 1464 \$1 300;
#X obj 1570 1498 line~;
#X obj 1712 230 metro 1000;
#X msg 1739 1528 \$1 500;
#X obj 1531 1634 delread~ ddd 20;
#X floatatom 983 850 5 0 0 0 - - - 12;
#X obj 601 628 s noteValue1Return;
#X obj 601 668 r noteValue1;
#X obj 1095 656 r noteValue2;
#X obj 1085 628 s noteValue2Return;
#X msg 702 740 48;
#X msg 787 740 52;
#X msg 725 776 57;
#X msg 745 740 50;
#X msg 771 776 60;
#X msg 812 776 62;
#X obj 733 677 select 0 1 2 3 4 5 6;
#X msg 924 750 48;
#X msg 1009 750 52;
#X msg 947 786 57;
#X msg 967 750 50;
#X msg 993 786 60;
#X msg 1034 786 62;
#X obj 988 686 select 0 1 2 3 4 5 6;
#X obj 733 648 random 7;
#X obj 988 637 random 7;
#X msg 834 739 55;
#X msg 1056 749 55;
#X obj 1460 -78 spigot;
#X floatatom 1460 -49 5 0 0 0 - - - 12;
#X obj 1520 -108 tgl 25 0 empty empty empty 17 7 0 10 #191919 #e1e1e1 #e1e1e1 0 1;
#X obj 1460 -148 notein;
#X floatatom 1460 -115 5 0 0 0 - - - 12;
#X obj 1417 1347 r noiseAmount;
#X obj 1801 1352 r noiseAmount;
#X obj 1588 1820 clip~ -1 1;
#X obj 1503 1820 clip~ -1 1;
#X obj 1621 1542 sig~;
#X obj 1621 1508 r cut;
#X obj 1874 1106 r airNoiseAmount;
#X msg 1078 -97 1;
#X msg 1125 -63 0;
#X obj 1076 -154 bng 25 250 50 0 empty empty empty 17 7 0 10 #191919 #e1e1e1 #e1e1e1;
#X obj 1162 -63 f 0;
#X obj 1127 -96 metro 10;
#X msg 1230 -97 1;
#X msg 1279 -64 0;
#X obj 1228 -156 bng 25 250 50 0 empty empty empty 17 7 0 10 #191919 #e1e1e1 #e1e1e1;
#X obj 1316 -64 f 0;
#X obj 1281 -97 metro 10;
#X obj 1076 -191 r noteTapIn;
#X obj 1076 -8 s noteTapOut;
#X obj 1228 -193 r tonesTapIn;
#X obj 1228 -8 s tonesTapOut;
#X text 1135 -238 tap randomizers;
#X obj 1663 1602 vcf~ 10 0;
#X obj 1503 1536 vcf~ 10 0;
#X obj 1460 -10 s midiNote;
#X obj 622 791 r midiNote;
#X obj 903 818 r midiNote;
#X text 1450 -191 midi input;
#X text 1740 39 clocks;
#X obj 1272 288 s noteClock;
#X obj 733 596 r noteClock;
#X obj 988 590 r noteClock;
#X text 1375 109 noteClocks;
#X text 1892 109 mod2Clocks;
#X obj 1892 330 s mod2Clock;
#X obj 1302 1268 r mod2Clock;
#X obj 1672 353 s mod1Clock1;
#X obj 1786 353 s mod1Clock2;
#X obj 1742 1498 r mod1Clock1;
#X obj 1801 1232 r mod1Clock2;
#X text 1712 109 mod1Clocks;
#X obj 1475 347 s tonesClock1;
#X obj 1533 397 s tonesClock2;
#X obj 1582 1432 r tonesClock2;
#X obj 1984 1617 r tonesClock1;
#X text 1533 109 tonesClocks;
#X obj 735 880 s osc1Notes;
#X obj 1185 1270 r osc1Notes;
#X msg 1244 723 36;
#X msg 1286 722 38;
#X msg 1371 722 43;
#X msg 1328 722 40;
#X msg 1272 761 45;
#X msg 1321 763 48;
#X msg 1373 763 50;
#X obj 1261 671 select 0 1 2 3 4 5 6;
#X obj 1261 642 random 7;
#X obj 1384 604 s bassValue1Return;
#X obj 1385 632 r bassValue1;
#X obj 1261 590 r bassClock;
#X obj 2132 177 tgl 25 0 empty empty empty 17 7 0 10 #191919 #e1e1e1 #e1e1e1 0 1;
#X text 2124 110 bassClocks;
#X obj 2132 144 r bass;
#X obj 2030 274 s bassClock;
#X obj 2132 237 metro 5000;
#X obj 2132 274 random 10000 3000;
#X floatatom 1314 801 5 0 0 0 - - - 12;
#X obj 1314 828 s bassNotes;
#X obj 983 877 s osc2Notes;
#X obj 1632 1287 r osc2Notes;
#X obj 1056 1338 r bassNotes;
#X text 967 472 note randomizers;
#X text 1006 543 OSC2;
#X text 1305 543 bass;
#X obj 1070 1473 *~;
#X obj 1094 1438 r bassVol;
#X obj 1598 1775 *~;
#X obj 1530 1773 *~;
#X floatatom 1367 1819 9 0 0 0 - - - 16;
#X obj 1367 1858 * -1, f 9;
#X obj 1368 1764 r clip;
#X obj 1683 1751 r gain;
#X obj 1570 1893 *~;
#X obj 1521 1890 *~;
#X obj 1674 1872 r volume;
#X text 1683 1780 comment;
#X obj 1532 1738 *~ 0.2;
#X obj 1598 1739 *~ 0.2;
#X obj -74 1057 loadbang;
#X obj -74 1086 s LB;
#X obj 500 791 inlet osc1freq;
#X obj 1085 786 inlet osc2freq;
#X obj 1416 760 inlet bassfreq;
#X obj 1407 1989 outlet~ leftOUT;
#X obj 1618 1998 outlet~ rightOUT;
#X obj 1545 -144 r midiEnable;
#X obj -16 -11 cnv 15 672 565 empty empty empty 20 12 0 14 #1f1f1f #e1e1e1 0;
#X text 712 543 OSC1;
#X obj 14 73 cnv 15 334 239 empty empty note\ select 113 15 0 22 #373737 #e1e1e1 0;
#X obj 14 324 cnv 15 334 183 empty empty randomizer 113 15 0 22 #373737 #e1e1e1 0;
#X obj 359 267 cnv 15 128 240 empty empty noise 36 15 0 22 #373737 #e1e1e1 0;
#X obj 138 376 tgl 42 0 empty empty empty 12 -16 0 20 #648c5e #e1e1e1 #e1e1e1 0 1;
#X obj 111 549 s notes;
#X obj 138 448 tgl 42 0 empty empty empty 11 -16 0 20 #648c5e #e1e1e1 #e1e1e1 0 1;
#X obj 221 376 tgl 42 0 empty empty mod1 2 -15 0 15 #648c5e #e1e1e1 #e1e1e1 0 1;
#X obj 287 376 tgl 42 0 empty empty mod2 2 -15 0 15 #648c5e #e1e1e1 #e1e1e1 0 1;
#X obj 138 523 s tones;
#X obj 196 570 s mod1;
#X obj 287 570 s mod2;
#X obj 78 376 bng 42 250 50 0 empty empty empty -3 -16 0 20 #648c5e #e1e1e1 #e1e1e1;
#X obj 78 448 bng 42 250 50 0 empty empty empty 11 -16 0 20 #648c5e #e1e1e1 #e1e1e1;
#X obj 78 160 hradio 35 1 0 7 empty empty empty 0 -8 0 10 #648c5e #e1e1e1 #e1e1e1 0;
#X obj 78 210 hradio 35 1 0 7 empty empty empty 0 -8 0 10 #648c5e #e1e1e1 #e1e1e1 0;
#X obj -162 79 r noteValue1Return;
#X obj -162 130 r noteValue2Return;
#X obj -162 258 s noteValue1;
#X obj -162 304 s noteValue2;
#X text 20 167 OSC1;
#X text 20 217 OSC2;
#X text 84 349 tap;
#X text 135 349 toggle;
#X text 20 386 notes;
#X text 20 458 tones;
#X obj 78 112 hradio 35 1 0 7 empty empty empty 0 -8 0 10 #648c5e #e1e1e1 #e1e1e1 0;
#X text 20 115 MSTR;
#X obj 382 579 s noiseAmount;
#X obj 431 542 s airNoiseAmount;
#X obj 4 523 s noteTapIn;
#X obj -89 368 r noteTapOut;
#X obj -89 406 r tonesTapOut;
#X obj 78 585 s tonesTapIn;
#X obj 14 14 cnv 15 197 47 empty empty DRONER 6 23 0 36 #648c5e #000000 0;
#X obj -162 342 s bassValue1;
#X obj -162 175 r bassValue1Return;
#X obj 221 448 tgl 42 0 empty empty bass 4 -15 0 15 #648c5e #e1e1e1 #e1e1e1 0 1;
#X obj 221 538 s bass;
#X obj 360 14 cnv 15 128 241 empty empty cutoff 34 15 0 22 #373737 #e1e1e1 0;
#X obj 431 248 s cut;
#X obj 409 77 vsl 29 155 0 3000 0 0 empty empty empty -4 -15 0 16 #648c5e #e1e1e1 #e1e1e1 0 1;
#X obj 385 328 vsl 29 155 0 5000 0 0 empty empty DC 5 -15 0 15 #648c5e #e1e1e1 #e1e1e1 0 1;
#X obj 434 328 vsl 29 155 1.27 3000 0 0 empty empty air 6 -15 0 15 #648c5e #e1e1e1 #e1e1e1 0 1;
#X obj 78 258 hradio 35 1 0 7 empty empty empty 0 -8 0 10 #648c5e #e1e1e1 #e1e1e1 0;
#X obj 499 267 cnv 15 130 240 empty empty mixer 36 15 0 22 #373737 #e1e1e1 0;
#X obj 522 324 vsl 29 155 0 1 0 0 empty empty bass 0 -15 0 15 #648c5e #e1e1e1 #e1e1e1 0 1;
#X obj 560 549 s bassVol;
#X obj 576 324 vsl 29 155 0 1 0 0 empty empty master -6 -15 0 15 #648c5e #e1e1e1 #e1e1e1 0 1;
#X obj 582 513 s volume;
#X msg 659 283 1;
#X obj 657 248 r LB;
#X obj 499 14 cnv 15 128 241 empty empty drive 39 15 0 22 #373737 #e1e1e1 0;
#X obj 524 77 vsl 29 155 0 0.5 0 0 empty empty gain 1 -15 0 15 #648c5e #e1e1e1 #e1e1e1 0 1;
#X obj 573 77 vsl 29 155 0 1 0 0 empty empty treshold -10 -15 0 15 #648c5e #e1e1e1 #e1e1e1 0 1;
#X obj 725 225 s clip;
#X obj 658 225 s gain;
#X text 545 39 drive;
#X msg 702 51 1;
#X msg 650 51 0.21;
#X obj 664 9 r LB;
#X text 20 264 bass;
#X obj 222 14 cnv 15 126 47 empty empty midi\ in 6 23 0 22 #373737 #ffffff 0;
#X obj 307 22 tgl 30 0 empty empty empty 17 7 0 10 #648c5e #ffffff #e1e1e1 0 1;
#X connect 1 0 180 0;
#X connect 2 0 3 0;
#X connect 2 0 32 0;
#X connect 3 0 1 0;
#X connect 3 0 14 0;
#X connect 3 0 51 0;
#X connect 4 0 1 1;
#X connect 5 0 4 0;
#X connect 6 0 5 0;
#X connect 6 0 14 0;
#X connect 7 0 5 1;
#X connect 8 0 181 0;
#X connect 9 0 10 0;
#X connect 9 0 33 0;
#X connect 10 0 8 0;
#X connect 10 0 14 1;
#X connect 10 0 51 1;
#X connect 11 0 8 1;
#X connect 12 0 11 0;
#X connect 13 0 12 1;
#X connect 14 0 117 0;
#X connect 16 0 20 0;
#X connect 16 0 181 0;
#X connect 17 0 12 0;
#X connect 17 0 14 1;
#X connect 17 0 19 0;
#X connect 18 0 180 0;
#X connect 19 0 20 1;
#X connect 20 0 21 0;
#X connect 21 0 15 0;
#X connect 22 0 23 0;
#X connect 22 0 50 0;
#X connect 23 0 131 0;
#X connect 24 0 63 0;
#X connect 25 0 26 0;
#X connect 26 0 41 0;
#X connect 27 0 25 0;
#X connect 28 0 29 0;
#X connect 29 0 31 0;
#X connect 29 0 135 0;
#X connect 30 0 28 0;
#X connect 31 0 136 0;
#X connect 32 0 34 0;
#X connect 33 0 34 1;
#X connect 34 0 35 0;
#X connect 34 0 117 0;
#X connect 36 0 37 0;
#X connect 37 0 180 0;
#X connect 37 0 181 0;
#X connect 38 0 53 0;
#X connect 39 0 40 0;
#X connect 39 0 181 0;
#X connect 40 0 35 0;
#X connect 41 0 128 0;
#X connect 42 0 54 0;
#X connect 43 0 44 0;
#X connect 44 0 168 0;
#X connect 45 0 46 0;
#X connect 46 0 117 0;
#X connect 47 0 48 0;
#X connect 48 0 40 0;
#X connect 49 0 180 0;
#X connect 49 0 181 0;
#X connect 50 0 130 0;
#X connect 51 0 116 0;
#X connect 52 0 116 1;
#X connect 53 0 39 0;
#X connect 54 0 55 0;
#X connect 54 0 123 0;
#X connect 55 0 54 1;
#X connect 56 0 42 0;
#X connect 57 0 30 0;
#X connect 58 0 24 0;
#X connect 59 0 27 0;
#X connect 60 0 140 0;
#X connect 61 0 62 0;
#X connect 62 0 117 1;
#X connect 63 0 22 0;
#X connect 64 0 52 0;
#X connect 65 0 49 0;
#X connect 66 0 162 0;
#X connect 68 0 77 0;
#X connect 69 0 84 0;
#X connect 71 0 60 0;
#X connect 72 0 60 0;
#X connect 73 0 60 0;
#X connect 74 0 60 0;
#X connect 75 0 60 0;
#X connect 76 0 60 0;
#X connect 77 0 71 0;
#X connect 77 1 74 0;
#X connect 77 2 72 0;
#X connect 77 3 87 0;
#X connect 77 4 73 0;
#X connect 77 5 75 0;
#X connect 77 6 76 0;
#X connect 78 0 66 0;
#X connect 79 0 66 0;
#X connect 80 0 66 0;
#X connect 81 0 66 0;
#X connect 82 0 66 0;
#X connect 83 0 66 0;
#X connect 84 0 78 0;
#X connect 84 1 81 0;
#X connect 84 2 79 0;
#X connect 84 3 88 0;
#X connect 84 4 80 0;
#X connect 84 5 82 0;
#X connect 84 6 83 0;
#X connect 85 0 67 0;
#X connect 85 0 77 0;
#X connect 86 0 70 0;
#X connect 86 0 84 0;
#X connect 87 0 60 0;
#X connect 88 0 66 0;
#X connect 89 0 90 0;
#X connect 90 0 118 0;
#X connect 91 0 89 1;
#X connect 92 0 93 0;
#X connect 93 0 89 0;
#X connect 94 0 4 1;
#X connect 95 0 11 1;
#X connect 96 0 176 0;
#X connect 97 0 177 0;
#X connect 98 0 116 1;
#X connect 98 0 117 1;
#X connect 99 0 98 0;
#X connect 100 0 46 1;
#X connect 101 0 112 0;
#X connect 102 0 112 0;
#X connect 103 0 101 0;
#X connect 103 0 105 0;
#X connect 104 0 105 0;
#X connect 105 0 102 0;
#X connect 105 0 104 0;
#X connect 106 0 114 0;
#X connect 107 0 114 0;
#X connect 108 0 106 0;
#X connect 108 0 110 0;
#X connect 109 0 110 0;
#X connect 110 0 107 0;
#X connect 110 0 109 0;
#X connect 111 0 103 0;
#X connect 113 0 108 0;
#X connect 116 0 35 0;
#X connect 116 0 180 0;
#X connect 117 0 15 0;
#X connect 117 0 37 1;
#X connect 119 0 60 0;
#X connect 120 0 66 0;
#X connect 124 0 85 0;
#X connect 125 0 86 0;
#X connect 129 0 6 0;
#X connect 132 0 64 0;
#X connect 133 0 17 0;
#X connect 137 0 61 0;
#X connect 138 0 38 0;
#X connect 141 0 2 0;
#X connect 142 0 160 0;
#X connect 143 0 160 0;
#X connect 144 0 160 0;
#X connect 145 0 160 0;
#X connect 146 0 160 0;
#X connect 147 0 160 0;
#X connect 148 0 160 0;
#X connect 149 0 142 0;
#X connect 149 1 143 0;
#X connect 149 2 145 0;
#X connect 149 3 144 0;
#X connect 149 4 146 0;
#X connect 149 5 147 0;
#X connect 149 6 148 0;
#X connect 150 0 149 0;
#X connect 150 0 151 0;
#X connect 152 0 149 0;
#X connect 153 0 150 0;
#X connect 154 0 158 0;
#X connect 156 0 154 0;
#X connect 158 0 157 0;
#X connect 158 0 159 0;
#X connect 159 0 158 1;
#X connect 160 0 161 0;
#X connect 163 0 9 0;
#X connect 164 0 43 0;
#X connect 168 0 15 0;
#X connect 168 0 35 0;
#X connect 169 0 168 1;
#X connect 170 0 96 0;
#X connect 171 0 97 0;
#X connect 172 0 173 0;
#X connect 172 0 96 2;
#X connect 172 0 97 2;
#X connect 173 0 96 1;
#X connect 173 0 97 1;
#X connect 174 0 172 0;
#X connect 175 0 170 1;
#X connect 175 0 171 1;
#X connect 176 0 0 1;
#X connect 176 0 188 0;
#X connect 177 0 0 0;
#X connect 177 0 187 0;
#X connect 178 0 177 1;
#X connect 178 0 176 1;
#X connect 180 0 171 0;
#X connect 181 0 170 0;
#X connect 182 0 183 0;
#X connect 184 0 60 0;
#X connect 185 0 66 0;
#X connect 186 0 160 0;
#X connect 189 0 91 0;
#X connect 195 0 196 0;
#X connect 197 0 200 0;
#X connect 198 0 201 0;
#X connect 199 0 202 0;
#X connect 203 0 221 0;
#X connect 204 0 224 0;
#X connect 205 0 209 0;
#X connect 206 0 210 0;
#X connect 207 0 205 0;
#X connect 208 0 206 0;
#X connect 217 0 205 0;
#X connect 217 0 206 0;
#X connect 222 0 195 0;
#X connect 223 0 197 0;
#X connect 227 0 235 0;
#X connect 228 0 229 0;
#X connect 232 0 231 0;
#X connect 233 0 219 0;
#X connect 234 0 220 0;
#X connect 235 0 226 0;
#X connect 237 0 238 0;
#X connect 239 0 240 0;
#X connect 241 0 239 0;
#X connect 241 0 237 0;
#X connect 242 0 241 0;
#X connect 244 0 247 0;
#X connect 245 0 246 0;
#X connect 249 0 245 0;
#X connect 250 0 244 0;
#X connect 251 0 250 0;
#X connect 251 0 249 0;
