#N canvas 827 239 527 327 12;
#N canvas 733 172 450 300 sawtooth 0;
#X obj 261 96 inlet~;
#X obj 261 148 phasor~;
#X obj 261 203 outlet~;
#X obj 405 104 r stopAll;
#X msg 406 137 0;
#X obj 405 227 switch~;
#X obj 447 137 inlet;
#X msg 449 173 1;
#X connect 0 0 1 0;
#X connect 1 0 2 0;
#X connect 3 0 4 0;
#X connect 4 0 5 0;
#X connect 6 0 7 0;
#X connect 7 0 5 0;
#X restore 246 217 pd sawtooth;
#N canvas 733 172 450 300 sine 0;
#X obj 261 96 inlet~;
#X obj 261 203 outlet~;
#X obj 405 104 r stopAll;
#X msg 406 137 0;
#X obj 405 227 switch~;
#X obj 447 137 inlet;
#X msg 449 173 1;
#X obj 261 148 osc~;
#X connect 0 0 7 0;
#X connect 2 0 3 0;
#X connect 3 0 4 0;
#X connect 5 0 6 0;
#X connect 6 0 4 0;
#X connect 7 0 1 0;
#X restore 165 217 pd sine;
#N canvas 733 172 450 300 square 0;
#X obj 261 96 inlet~;
#X obj 261 148 phasor~;
#X obj 261 237 outlet~;
#X obj 405 104 r stopAll;
#X msg 406 137 0;
#X obj 405 227 switch~;
#X obj 447 137 inlet;
#X msg 449 173 1;
#X obj 261 195 expr~ $v1 > 0.5;
#X connect 0 0 1 0;
#X connect 1 0 8 0;
#X connect 3 0 4 0;
#X connect 4 0 5 0;
#X connect 6 0 7 0;
#X connect 7 0 5 0;
#X connect 8 0 2 0;
#X restore 353 217 pd square;
#X floatatom 165 70 5 0 0 0 - - - 0;
#X obj 165 108 sig~;
#X obj 307 59 hradio 20 1 0 3 empty empty empty 0 -8 0 10 #191919 #e1e1e1 #e1e1e1 0;
#X obj 315 100 t f b;
#X obj 386 107 s stopAll;
#X obj 320 137 sel 0 1 2;
#X obj 233 293 *~ 0.5;
#X obj 236 349 dac~;
#X connect 0 0 9 0;
#X connect 1 0 9 0;
#X connect 2 0 9 0;
#X connect 3 0 4 0;
#X connect 4 0 1 0;
#X connect 4 0 0 0;
#X connect 4 0 2 0;
#X connect 5 0 6 0;
#X connect 6 0 8 0;
#X connect 6 1 7 0;
#X connect 8 0 1 1;
#X connect 8 1 0 1;
#X connect 8 2 2 1;
#X connect 9 0 10 0;
#X connect 9 0 10 1;
