#N canvas 827 239 527 327 12;
#X obj 192 572 adc~;
#X obj 242 572 bng 25 250 50 0 empty empty empty 17 7 0 10 #191919 #e1e1e1 #e1e1e1;
#X obj 192 624 tabwrite~ sampler;
#X obj 192 887 tabread~ sampler;
#X obj 192 1148 dac~;
#X obj 192 1017 *~;
#X obj 602 453 bng 25 250 50 0 empty empty empty 17 7 0 10 #191919 #e1e1e1 #e1e1e1;
#X obj 602 498 metro;
#X msg 546 453 stop;
#X obj 639 453 nbx 13 20 -1e+37 1e+37 0 0 empty empty empty 0 -8 0 10 #191919 #e1e1e1 #e1e1e1 0 256;
#X obj 24 559 dac~;
#X obj 24 451 adc~;
#X obj 7 515 *~;
#X obj 51 514 *~;
#X obj 172 1071 *~;
#X obj 221 1071 *~;
#X obj 602 798 samplerate~;
#X obj 703 798 nbx 4 18 0.1 10 0 0 empty empty empty 0 -8 0 10 #191919 #e1e1e1 #e1e1e1 0 256;
#X obj 602 846 *;
#X obj 602 959 s sampler;
#X msg 602 921 resize \$1;
#X msg 703 942 \$1 \, 0 \$2;
#X obj 703 846 * 1000;
#X obj 703 895 pack f f;
#X obj 602 761 bng 25 250 50 0 empty empty empty 17 7 0 10 #191919 #e1e1e1 #e1e1e1;
#X obj 432 784 delay;
#X obj 69 761 *~;
#X obj 352 329 s feedback;
#X obj 80 706 r feedback;
#X obj 17 329 s DryLevel;
#X obj 83 451 r DryLevel;
#X obj 106 329 s WetLevel;
#X obj 78 970 r WetLevel;
#X obj 261 329 s Stime;
#X obj 703 733 r Stime;
#X text 602 425 metronome;
#X text 192 534 input;
#X text 11 418 dry;
#X obj 711 152 loadbang;
#X msg 745 203 0.3;
#X msg 789 203 0.5;
#X msg 712 203 0.5;
#X obj 602 384 loadbang;
#X obj 192 929 flanger~ 0.5 0.7 -0.4;
#X obj 162 1107 free.rev~ 0.7 0.6 0.6 0.4;
#X text 342 928 FLANGER;
#X text 333 1108 REVERB;
#X msg 355 832 0 \, 1 300;
#X msg 432 833 1 \, 0 300;
#X obj 488 784 -300;
#X obj 192 853 line~;
#X obj 355 881 line~;
#X connect 0 0 2 0;
#X connect 0 1 2 0;
#X connect 1 0 2 0;
#X connect 3 0 26 0 48.................N....f8+++uC....X++++20+++ug++++c8+++a3++++a++++;
#X connect 3 0 43 0;
#X connect 5 0 14 0;
#X connect 5 0 15 0;
#X connect 6 0 7 0;
#X connect 7 0 1 0 32.................R....jo+++uD....Y5+++aC....;
#X connect 7 0 25 0 32.................YA...b0+++eV....W8+++qP....;
#X connect 7 0 24 0 32.................2A...L....vc....C....3N....;
#X connect 7 0 47 0 32.................JA...nv+++uR....J7+++qS....;
#X connect 8 0 7 0;
#X connect 9 0 7 1;
#X connect 11 0 12 0 32.................M....D++++eC....w++++mA....;
#X connect 11 1 13 0 32.................L....j.....C....I....fA....;
#X connect 12 0 10 0 32.................G.....A...vA....P....z.....;
#X connect 13 0 10 1 32.................G....f+++++A....3++++6.....;
#X connect 14 0 44 0;
#X connect 15 0 44 1;
#X connect 16 0 18 0;
#X connect 17 0 18 1;
#X connect 17 0 22 0;
#X connect 18 0 20 0;
#X connect 18 0 23 0;
#X connect 20 0 19 0;
#X connect 21 0 50 0;
#X connect 22 0 23 1;
#X connect 22 0 9 0;
#X connect 22 0 49 0;
#X connect 23 0 21 0;
#X connect 24 0 16 0;
#X connect 25 0 48 0;
#X connect 26 0 2 0 48.................Z....v8+++uF....b++++6z++++d....N8+++uG....Y++++;
#X connect 28 0 26 1;
#X connect 30 0 12 1 32.................W.....7++++E.....++++yB....;
#X connect 30 0 13 1 32.................g....v9+++eH....r++++uB....;
#X connect 32 0 14 1;
#X connect 32 0 15 1;
#X connect 34 0 17 0;
#X connect 38 0 41 0 32.................P..........D.........7A....;
#X connect 38 0 40 0 32.................H....3D....B....NA...7A....;
#X connect 38 0 39 0 32.................U....HB...PE....h....7A....;
#X connect 42 0 6 0;
#X connect 43 0 5 0;
#X connect 44 0 4 0;
#X connect 44 1 4 1;
#X connect 47 0 51 0;
#X connect 48 0 51 0;
#X connect 49 0 25 1;
#X connect 50 0 3 0;
#X connect 51 0 5 1 32.................UA...j1+++eU....o8+++SG....;
