#N canvas 827 239 527 327 12;
#X obj 192 572 adc~;
#N canvas 0 0 450 250 (subpatch) 0;
#X array sampler 77013 float 0;
#X coords 0 1 77012 -1 490 197 1;
#X restore 17 117 graph;
#X obj 242 572 bng 25 250 50 0 empty empty empty 17 7 0 10 #191919 #e1e1e1 #e1e1e1;
#X obj 192 624 tabwrite~ sampler;
#X obj 192 887 tabread~ sampler;
#X obj 192 1148 dac~;
#X obj 192 853 vline~;
#X obj 355 881 vline~;
#X obj 192 1017 *~;
#X obj 602 453 bng 25 250 50 0 empty empty empty 17 7 0 10 #191919 #e1e1e1 #e1e1e1;
#X obj 602 498 metro;
#X msg 546 453 stop;
#X obj 639 453 nbx 13 20 -1e+37 1e+37 0 0 empty empty empty 0 -8 0 10 #191919 #e1e1e1 #e1e1e1 0 256;
#X obj 24 559 dac~;
#X obj 24 451 adc~;
#X obj 7 515 *~;
#X obj 51 514 *~;
#X obj 17 46 knob 50 0 1 0 0 empty empty #191919 #696969 #E1E1E1 1 0 0 0 1 270 0 0 0;
#X text 12 8 dry level;
#X obj 172 1071 *~;
#X obj 221 1071 *~;
#X obj 106 46 knob 50 0 1 0 0 empty empty #191919 #696969 #E1E1E1 1 0 0 0 1 270 0 0 0;
#X text 99 8 wet level;
#X obj 602 798 samplerate~;
#X obj 703 798 nbx 4 18 0.1 10 0 0 empty empty empty 0 -8 0 10 #191919 #e1e1e1 #e1e1e1 0 256;
#X obj 602 846 *;
#X obj 602 959 s sampler;
#X msg 602 921 resize \$1;
#X msg 703 942 \$1 \, 0 \$2;
#X obj 703 846 * 1000;
#X obj 703 895 pack f f;
#X obj 602 761 bng 25 250 50 0 empty empty empty 17 7 0 10 #191919 #e1e1e1 #e1e1e1;
#X obj 432 784 delay;
#X obj 361 46 knob 50 0.1 10 0 0 empty empty #191919 #696969 #E1E1E1 1 0 0 0 1 270 0 0 0.1;
#X obj 69 761 *~;
#X obj 452 46 knob 50 0 0.9 0 0 empty empty #191919 #696969 #E1E1E1 1 0 0 0 1 270 0 0 0;
#X text 444 8 feedback;
#X text 345 8 sample time;
#X obj 452 329 s feedback;
#X obj 80 706 r feedback;
#X obj 17 329 s DryLevel;
#X obj 83 451 r DryLevel;
#X obj 106 329 s WetLevel;
#X obj 78 970 r WetLevel;
#X obj 361 329 s Stime;
#X obj 703 733 r Stime;
#X text 602 425 metronome;
#X text 192 534 input;
#X text 11 418 dry;
#X obj 711 152 loadbang;
#X msg 745 203 0.3;
#X msg 789 203 0.5;
#X msg 712 203 0.5;
#X obj 602 384 loadbang;
#X obj 192 929 flanger~ 0.5 0.7 -0.4;
#X obj 162 1107 free.rev~ 0.7 0.6 0.6 0.4;
#X text 340 958 FLANGER;
#X text 333 1108 REVERB;
#X obj 192 986 drive~;
#X obj 279 46 knob 50 0.1 3 0 0 empty empty #191919 #696969 #E1E1E1 1 0 0 0 1 270 0 0 0.1;
#X text 285 8 drive;
#X obj 279 333 s drive;
#X obj 258 959 r drive;
#X msg 355 832 0 \, 1 300;
#X msg 432 833 1 \, 0 300;
#X obj 488 784 -300;
#X connect 0 0 3 0;
#X connect 0 1 3 0;
#X connect 2 0 3 0;
#X connect 4 0 34 0 48.................N....f8+++uC....X++++20+++ug++++c8+++a3++++a++++;
#X connect 4 0 54 0;
#X connect 6 0 4 0;
#X connect 7 0 8 1 32.................aB...j1++++l....o8+++SG....;
#X connect 8 0 19 0;
#X connect 8 0 20 0;
#X connect 9 0 10 0;
#X connect 10 0 2 0 32.................R....jo+++uD....Y5+++aC....;
#X connect 10 0 32 0 32.................YA...b0+++eV....W8+++qP....;
#X connect 10 0 31 0 32.................2A...L....vc....C....3N....;
#X connect 10 0 63 0 32.................JA...nv+++uR....J7+++qS....;
#X connect 11 0 10 0;
#X connect 12 0 10 1;
#X connect 14 0 15 0 32.................M....D++++eC....w++++mA....;
#X connect 14 1 16 0 32.................L....j.....C....I....fA....;
#X connect 15 0 13 0 32.................G.....A...vA....P....z.....;
#X connect 16 0 13 1 32.................G....f+++++A....3++++6.....;
#X connect 17 0 40 0;
#X connect 19 0 55 0;
#X connect 20 0 55 1;
#X connect 21 0 42 0;
#X connect 23 0 25 0;
#X connect 24 0 25 1;
#X connect 24 0 29 0;
#X connect 25 0 27 0;
#X connect 25 0 30 0;
#X connect 27 0 26 0;
#X connect 28 0 6 0;
#X connect 29 0 30 1;
#X connect 29 0 12 0;
#X connect 29 0 65 0;
#X connect 30 0 28 0;
#X connect 31 0 23 0;
#X connect 32 0 64 0;
#X connect 33 0 44 0;
#X connect 34 0 3 0 48.................Z....v8+++uF....b++++6z++++d....N8+++uG....Y++++;
#X connect 35 0 38 0;
#X connect 39 0 34 1;
#X connect 41 0 15 1 32.................W.....7++++E.....++++yB....;
#X connect 41 0 16 1 32.................g....v9+++eH....r++++uB....;
#X connect 43 0 19 1;
#X connect 43 0 20 1;
#X connect 45 0 24 0;
#X connect 49 0 52 0 32.................P..........D.........7A....;
#X connect 49 0 51 0 32.................H....3D....B....NA...7A....;
#X connect 49 0 50 0 32.................U....HB...PE....h....7A....;
#X connect 50 0 33 0 64.................Z....D3+++uF....A9+++mx+++uf9+++o7+++Kn+++OT++++A5+++C0+++ef9+++P8+++C;
#X connect 51 0 17 0 64.................1....Lz+++uM....C8+++Wt+++u+7+++k6+++6O+++OT++++8y+++C0+++e+7+++P8+++C;
#X connect 51 0 21 0 64.................AA...Xy+++eP....17+++av+++uN9+++F7+++qi+++uA++++V0+++av+++uU8+++P8+++C;
#X connect 52 0 35 0 48.................P....z5+++OD....s9+++Kz+++u+9+++B8+++6u+++OT++++;
#X connect 53 0 9 0;
#X connect 54 0 58 0;
#X connect 55 0 5 0;
#X connect 55 1 5 1;
#X connect 58 0 8 0;
#X connect 59 0 61 0;
#X connect 62 0 58 1;
#X connect 63 0 7 0;
#X connect 64 0 7 0;
#X connect 65 0 32 1;
